{
    "accessors" : [
        {
            "bufferView" : 0,
            "componentType" : 5123,
            "count" : 1524,
            "max" : [
                767
            ],
            "min" : [
                0
            ],
            "type" : "SCALAR"
        },
        {
            "bufferView" : 1,
            "componentType" : 5126,
            "count" : 768,
            "max" : [
                1.2000000476837158,
                1.0,
                1.2000000476837158
            ],
            "min" : [
                -1.2000000476837158,
                -1.0,
                -1.2000000476837158
            ],
            "type" : "VEC3"
        },
        {
            "bufferView" : 2,
            "componentType" : 5126,
            "count" : 768,
            "max" : [
                0.9996987581253052,
                1.0,
                0.99969881772995
            ],
            "min" : [
                -0.99969881772995,
                -1.0,
                -0.9996988773345947
            ],
            "type" : "VEC3"
        },
        {
            "bufferView" : 3,
            "componentType" : 5126,
            "count" : 768,
            "max" : [
                1.0,
                1.0
            ],
            "min" : [
                0.0,
                0.0
            ],
            "type" : "VEC2"
        }
    ],
    "asset" : {
        "generator" : "Khronos Blender glTF 2.0 exporter",
        "version" : "2.0"
    },
    "bufferViews" : [
        {
            "buffer" : 0,
            "byteLength" : 3048,
            "byteOffset" : 0,
            "target" : 34963
        },
        {
            "buffer" : 0,
            "byteLength" : 9216,
            "byteOffset" : 3048,
            "target" : 34962
        },
        {
            "buffer" : 0,
            "byteLength" : 9216,
            "byteOffset" : 12264,
            "target" : 34962
        },
        {
            "buffer" : 0,
            "byteLength" : 6144,
            "byteOffset" : 21480,
            "target" : 34962
        }
    ],
    "buffers" : [
        {
            "byteLength" : 27624,
            "uri" : "Gate.bin"
        }
    ],
    "images" : [
        {
            "name" : "Gate",
            "uri" : "Gate.jpg"
        }
    ],
    "materials" : [
        {
            "alphaMode" : "BLEND",
            "name" : "Material.001",
            "pbrMetallicRoughness" : {
                "baseColorFactor" : [
                    0.6400000190734865,
                    0.6400000190734865,
                    0.6400000190734865,
                    0.6000000238418579
                ],
                "baseColorTexture" : {
                    "index" : 0
                },
                "metallicFactor" : 0.0
            }
        }
    ],
    "meshes" : [
        {
            "name" : "Cylinder",
            "primitives" : [
                {
                    "attributes" : {
                        "NORMAL" : 2,
                        "POSITION" : 1,
                        "TEXCOORD_0" : 3
                    },
                    "indices" : 0,
                    "material" : 0
                }
            ]
        }
    ],
    "nodes" : [
        {
            "mesh" : 0,
            "name" : "Cylinder",
            "scale" : [
                1.0,
                4.0,
                1.0
            ],
            "translation" : [
                0.0,
                3.0,
                -0.0
            ]
        }
    ],
    "samplers" : [
        {}
    ],
    "scene" : 0,
    "scenes" : [
        {
            "name" : "Scene",
            "nodes" : [
                0
            ]
        }
    ],
    "textures" : [
        {
            "sampler" : 0,
            "source" : 0
        }
    ]
}
